<svg width="19" height="14" viewBox="0 0 19 14" fill="none" xmlns="http://www.w3.org/2000/svg">
<path d="M16.548 6.02845C16.545 6.47174 16.1497 6.84727 15.6836 6.84962C15.2131 6.85197 14.8078 6.46515 14.8118 6.01716C14.8158 5.5654 15.2195 5.19128 15.6955 5.19834C16.1625 5.2054 16.5509 5.58328 16.548 6.02845ZM16.0354 6.01951C16.0344 5.82892 15.886 5.68775 15.6856 5.6854C15.4773 5.68304 15.3214 5.82986 15.3234 6.0261C15.3254 6.21292 15.4783 6.36021 15.6742 6.36304C15.879 6.36539 16.0369 6.21527 16.0354 6.01951Z" fill="white" fill-opacity="0.5"/>
<path d="M19 9.81934C18.9377 10.1407 18.8931 10.4664 18.809 10.7831C18.6052 11.5525 18.2262 12.2334 17.5666 12.7379C16.5672 13.5021 15.0804 13.4579 14.0967 12.6588C13.4694 12.1492 12.9751 11.536 12.5407 10.8753C12.1518 10.2847 11.6011 9.92287 10.8787 9.80193C10.7758 9.78451 10.6699 9.77746 10.5655 9.77698C9.85451 9.7751 9.14351 9.76381 8.43301 9.77887C7.61613 9.79628 6.99073 10.1553 6.51673 10.7845C6.13971 11.2847 5.7612 11.7873 5.34114 12.2546C4.88297 12.7643 4.30952 13.1332 3.59259 13.24C2.41254 13.416 1.48681 13.0188 0.808468 12.0908C0.346345 11.4584 0.124684 10.745 0.0376032 9.98734C0.0311711 9.9304 0.0128642 9.87487 0 9.81887C0 9.41887 0 9.01887 0 8.61888C0.0494779 8.28853 0.0880706 7.95629 0.150413 7.6283C0.507148 5.76007 1.12711 3.98362 2.19682 2.36622C2.45509 1.9761 2.79698 1.66881 3.21854 1.43728C3.27692 1.40528 3.32541 1.31823 3.33382 1.2514C3.35163 1.11211 3.33827 0.969522 3.33976 0.828817C3.34569 0.370938 3.71134 0.0118823 4.19424 0.00529414C4.76917 -0.00223522 5.34411 -0.000823584 5.91904 0.00388226C6.43262 0.00811752 6.8319 0.359174 6.81162 0.845288C6.79826 1.16999 6.88485 1.35446 7.21635 1.47446C7.42811 1.55116 7.60623 1.71869 7.78831 1.85846C8.14802 2.13516 8.54978 2.28292 9.01635 2.27116C9.44879 2.26034 9.88271 2.27822 10.3132 2.24857C10.6526 2.22504 10.9366 2.05234 11.2102 1.86034C11.4868 1.66599 11.7886 1.50505 12.0736 1.32152C12.1226 1.28999 12.1636 1.2194 12.1711 1.16246C12.1923 0.994463 12.174 0.819876 12.2087 0.655172C12.2898 0.270233 12.6268 0.0095294 13.0399 0.00529414C13.6272 -0.000823462 14.2145 -0.00176471 14.8018 0.00576464C15.2837 0.0123528 15.68 0.374703 15.6494 0.829288C15.6241 1.20293 15.7058 1.45564 16.0818 1.64387C16.4217 1.81422 16.6439 2.12951 16.8492 2.44245C17.7546 3.82268 18.3226 5.32996 18.6932 6.90736C18.8179 7.43818 18.8758 7.98312 18.9659 8.521C18.9713 8.55441 18.9876 8.58641 18.999 8.61888C19 9.01934 19 9.41934 19 9.81934ZM5.19765 1.60246C5.19765 1.59869 5.19765 1.59446 5.19765 1.59069C5.01211 1.59069 4.82657 1.59258 4.64103 1.59022C3.72321 1.57846 3.04586 1.96857 2.57087 2.70269C1.93656 3.68338 1.45564 4.72808 1.12265 5.83396C0.711492 7.20053 0.393349 8.57935 0.556131 10.0156C0.636285 10.7219 0.855967 11.3817 1.32254 11.9501C2.16565 12.9774 3.63267 13.0946 4.65686 12.224C5.22981 11.737 5.6667 11.1487 6.08677 10.5436C6.65576 9.72428 7.47066 9.30781 8.50228 9.29228C9.18854 9.28193 9.87529 9.28711 10.5615 9.29322C10.7332 9.29464 10.9074 9.3144 11.0751 9.34875C11.89 9.51393 12.5159 9.93934 12.9592 10.6099C13.3625 11.2198 13.8137 11.7911 14.3906 12.2659C15.3847 13.0847 16.8304 12.9614 17.6443 11.984C18.2385 11.2706 18.4409 10.4325 18.479 9.54828C18.5186 8.62594 18.3682 7.72241 18.1495 6.82689C17.7908 5.36008 17.2515 3.96291 16.4103 2.67869C16.0679 2.15587 15.6019 1.79681 14.9685 1.64952C14.826 1.61658 14.6766 1.59775 14.5297 1.59493C14.1586 1.58693 13.7865 1.60764 13.4169 1.5874C12.6916 1.54834 12.0726 1.76763 11.5323 2.22128C11.186 2.5121 10.7802 2.69845 10.3161 2.73139C9.95346 2.75727 9.58733 2.74033 9.22367 2.75916C8.49436 2.7968 7.86599 2.5808 7.32174 2.11916C6.98133 1.83069 6.5766 1.65093 6.12388 1.60811C5.8181 1.5794 5.50639 1.60246 5.19765 1.60246ZM6.3114 1.14034C6.3114 1.03587 6.31338 0.949287 6.3109 0.862229C6.30497 0.636819 6.17731 0.486232 5.93982 0.481526C5.36588 0.469761 4.79144 0.472585 4.21749 0.480114C4.03591 0.482467 3.88995 0.57329 3.85977 0.754465C3.8375 0.889052 3.85532 1.02976 3.85532 1.14034C4.6722 1.14034 5.4772 1.14034 6.3114 1.14034ZM12.6881 1.13987C13.5188 1.13987 14.3273 1.13987 15.1536 1.13987C15.1536 1.05611 15.158 0.95164 15.1526 0.847641C15.1412 0.628819 15.018 0.486232 14.7875 0.481996C14.2081 0.470702 13.6277 0.470702 13.0483 0.482937C12.8187 0.487643 12.695 0.636819 12.6886 0.853758C12.6856 0.940816 12.6881 1.02835 12.6881 1.13987Z" fill="white" fill-opacity="0.5"/>
<path d="M5.60641 7.05633C5.60641 7.21821 5.61087 7.35233 5.60542 7.48644C5.59503 7.7495 5.40207 7.97114 5.12747 7.98479C4.73313 8.00408 4.33681 8.00503 3.94247 7.9862C3.65303 7.97256 3.45759 7.74103 3.45215 7.46056C3.44967 7.33256 3.45165 7.20456 3.45165 7.05727C3.31262 7.05727 3.19041 7.05962 3.06869 7.0568C2.6798 7.04739 2.4522 6.82574 2.45121 6.45539C2.45022 6.15563 2.44874 5.85587 2.45171 5.5561C2.45517 5.23187 2.69118 5.00223 3.03109 4.99093C3.16518 4.9867 3.29976 4.98999 3.45165 4.98999C3.45165 4.84976 3.45066 4.72787 3.45165 4.60599C3.45561 4.28741 3.67579 4.05635 4.01273 4.04459C4.35858 4.03282 4.70542 4.03235 5.05078 4.04506C5.38921 4.05776 5.60097 4.28176 5.60889 4.60788C5.61186 4.72505 5.60938 4.84176 5.60938 4.98999C5.74 4.98999 5.86024 4.98905 5.98047 4.98999C6.37283 4.99328 6.60438 5.21164 6.60537 5.57916C6.60636 5.87892 6.60636 6.17869 6.60537 6.47845C6.60389 6.81821 6.38272 7.03892 6.02302 7.05539C5.89388 7.06103 5.76425 7.05633 5.60641 7.05633ZM2.96182 5.47563C2.96182 5.8234 2.9638 6.14057 2.96083 6.45774C2.95984 6.55421 3.00833 6.5768 3.09838 6.57492C3.27749 6.57115 3.4571 6.57257 3.63621 6.57398C3.86281 6.57586 3.95039 6.65445 3.95682 6.86998C3.96177 7.04033 3.96128 7.21115 3.95732 7.3815C3.95484 7.48456 3.99195 7.52974 4.10773 7.52738C4.39223 7.52174 4.67673 7.52221 4.96122 7.52691C5.07502 7.52879 5.11609 7.48409 5.11411 7.38056C5.11065 7.19844 5.10966 7.01586 5.11559 6.83374C5.12153 6.65727 5.20762 6.57774 5.39218 6.57445C5.57772 6.57068 5.76326 6.5688 5.9488 6.57539C6.05765 6.57915 6.10713 6.54857 6.10515 6.43751C6.1002 6.16128 6.10119 5.88457 6.10466 5.60834C6.10565 5.51234 6.07299 5.46999 5.96513 5.47375C5.78602 5.48034 5.60641 5.47705 5.4273 5.47469C5.20169 5.47187 5.11757 5.39187 5.11361 5.17446C5.11065 5.00975 5.10966 4.84505 5.11411 4.68035C5.11708 4.57399 5.08838 4.51799 4.95875 4.52176C4.67475 4.52929 4.38975 4.52835 4.10575 4.52223C3.98898 4.51941 3.95435 4.56411 3.95732 4.66717C3.96226 4.83752 3.96226 5.00834 3.95682 5.17869C3.9499 5.39093 3.85886 5.47328 3.63373 5.47516C3.41751 5.47752 3.20278 5.47563 2.96182 5.47563Z" fill="white" fill-opacity="0.5"/>
<path d="M9.49928 8.30143C9.32017 8.30143 9.14056 8.30331 8.96145 8.30096C8.6255 8.29719 8.36129 8.08025 8.30686 7.76402C8.29696 7.70614 8.29103 7.64731 8.29004 7.58896C8.27767 6.90473 8.49933 6.69156 9.21973 6.69156C9.46712 6.69156 9.7145 6.68873 9.96189 6.69203C10.428 6.69814 10.6957 6.95132 10.7055 7.39414C10.708 7.51131 10.7075 7.6299 10.6922 7.74614C10.6496 8.07131 10.38 8.29719 10.0371 8.30096C9.85799 8.30331 9.67888 8.30143 9.49928 8.30143ZM9.49878 7.82472C9.49878 7.82519 9.49878 7.82567 9.49878 7.82614C9.5913 7.82614 9.68383 7.82614 9.77635 7.82614C10.2088 7.82614 10.2202 7.81202 10.2068 7.39932C10.2019 7.23602 10.1222 7.16779 9.95348 7.17108C9.71302 7.17532 9.47256 7.17202 9.2316 7.17202C8.79174 7.17202 8.77789 7.18614 8.79471 7.6092C8.79471 7.61484 8.79471 7.62096 8.79471 7.62661C8.79372 7.75696 8.86447 7.82237 8.99856 7.82425C9.1653 7.82661 9.33204 7.82472 9.49878 7.82472Z" fill="white" fill-opacity="0.5"/>
<path d="M13.4704 6.02464C13.4699 6.47546 13.0874 6.84439 12.6159 6.84957C12.1453 6.85475 11.7381 6.46934 11.7401 6.02134C11.7421 5.57664 12.1345 5.20158 12.601 5.19876C13.0829 5.19499 13.4709 5.56393 13.4704 6.02464ZM12.9637 6.02228C12.9637 5.83122 12.8168 5.68864 12.6169 5.68534C12.411 5.68205 12.2463 5.83217 12.2468 6.02275C12.2473 6.2124 12.4155 6.36675 12.6174 6.36251C12.8123 6.35875 12.9637 6.21005 12.9637 6.02228Z" fill="white" fill-opacity="0.5"/>
<path d="M14.1537 3.74465C14.6301 3.74747 15.0101 4.11029 15.0096 4.56205C15.0091 5.02087 14.6197 5.38605 14.1354 5.38134C13.649 5.37663 13.2804 5.01381 13.2848 4.54464C13.2888 4.09335 13.6708 3.74182 14.1537 3.74465ZM14.5079 4.55311C14.5015 4.3677 14.3189 4.20817 14.126 4.21947C13.93 4.23076 13.7831 4.3837 13.788 4.57099C13.793 4.75546 13.9543 4.90746 14.1448 4.90699C14.3382 4.90652 14.5144 4.73523 14.5079 4.55311Z" fill="white" fill-opacity="0.5"/>
<path d="M14.1353 8.30116C13.6505 8.29928 13.2809 7.93552 13.2848 7.4654C13.2888 7.01929 13.6856 6.65082 14.1541 6.65882C14.6277 6.66682 15.0101 7.03529 15.0101 7.48328C15.0096 7.94022 14.6217 8.30351 14.1353 8.30116ZM14.1175 7.81881C14.3224 7.83105 14.4951 7.68987 14.5074 7.49928C14.5193 7.31999 14.3466 7.14352 14.1537 7.1374C13.9656 7.13176 13.7974 7.28234 13.788 7.46493C13.7791 7.65693 13.9181 7.80705 14.1175 7.81881Z" fill="white" fill-opacity="0.5"/>
</svg>
